<?xml version="1.0" encoding="UTF-8"?>
<svg version="1.1" xmlns="http://www.w3.org/2000/svg" width="563" height="389">
<path d="M0 0 C2.10486997 -0.00495715 4.20971259 -0.01286857 6.31457138 -0.02125549 C10.28879224 -0.03540373 14.26284802 -0.02949505 18.23708725 -0.02064514 C20.00034348 -0.02656677 20.00034348 -0.02656677 21.79922104 -0.03260803 C44.57046845 0.09245071 61.09695664 6.77157497 78.76052475 20.75279236 C81.75384181 23.1193466 84.83458015 25.34532506 87.9441185 27.55747986 C91.61624354 30.21311811 94.90973937 32.85361495 97.9441185 36.24497986 C98.8309935 37.21435486 99.7178685 38.18372986 100.6316185 39.18247986 C103.99555154 43.6374182 104.90835733 47.27979755 105.1941185 52.74497986 C105.57250561 57.15134494 106.78520486 60.50255539 108.623806 64.51451111 C111.9224443 71.93498541 114.58715404 79.5042148 117.09646225 87.22325134 C117.82371531 89.44653275 118.5750113 91.66079694 119.326931 93.87583923 C124.61226232 109.81235763 124.61226232 109.81235763 122.9441185 117.24497986 C121.61159897 119.02305603 121.61159897 119.02305603 119.9441185 120.24497986 C116.7566185 120.43247986 116.7566185 120.43247986 113.9441185 120.24497986 C114.03113022 121.11896423 114.03113022 121.11896423 114.11989975 122.01060486 C115.04823999 138.87987329 102.58852043 153.02779069 91.9753685 164.94810486 C82.87498193 174.94000512 82.87498193 174.94000512 78.9441185 177.24497986 C73.83155522 177.18124985 69.78263385 174.86355046 65.4441185 172.36997986 C64.75068344 171.97504333 64.05724838 171.58010681 63.34280014 171.17320251 C53.18302566 165.22189921 43.979848 157.85469004 35.9441185 149.24497986 C35.3459935 150.19372986 34.7478685 151.14247986 34.1316185 152.11997986 C31.9441185 155.24497986 31.9441185 155.24497986 28.9441185 157.24497986 C25.57069513 157.84028986 23.16003369 157.87059597 20.061306 156.27622986 C14.30001499 151.89111767 11.21333306 145.89444213 7.71731186 139.71665955 C-4.51164322 118.23756763 -24.51446652 101.84420331 -46.0558815 90.24497986 C-46.68438004 89.89242126 -47.31287857 89.53986267 -47.96042252 89.17662048 C-54.79644268 86.13732735 -63.78909456 88.89517959 -70.8058815 90.18247986 C-79.23191256 91.66502816 -87.495397 92.91058593 -96.0558815 93.24497986 C-96.3858815 91.92497986 -96.7158815 90.60497986 -97.0558815 89.24497986 C-91.32753103 88.38492671 -85.59836572 87.53060378 -79.8683815 86.6815033 C-77.92055763 86.39204942 -75.97296269 86.10105054 -74.02560806 85.80845642 C-71.221188 85.38736373 -68.41598272 84.97189425 -65.610569 84.55747986 C-64.31178314 84.36061584 -64.31178314 84.36061584 -62.98675919 84.15977478 C-55.27614943 83.03076955 -49.95951345 82.74982406 -42.9933815 86.68247986 C-42.33926285 87.04373962 -41.6851442 87.40499939 -41.01120377 87.77720642 C-16.04988004 101.82682263 3.67230237 121.76372159 17.47146225 146.81919861 C18.82045464 149.04127891 19.8863613 150.66771419 21.9441185 152.24497986 C25.56947826 152.49533756 25.56947826 152.49533756 28.9441185 152.24497986 C33.60314247 141.92058273 30.62949717 130.47489527 26.9441185 120.24497986 C21.61937724 108.96192054 13.73775333 99.66915274 4.72927475 91.15513611 C1.90767999 88.13596798 1.40213157 84.79438091 1.4909935 80.72154236 C3.51096988 69.68132661 12.8546666 59.54540131 19.61745834 50.94029236 C20.78741761 49.4452248 21.92505139 47.92498144 23.05739975 46.40122986 C26.038707 42.99402157 28.25722484 42.35946214 32.6941185 41.61997986 C44.02060667 41.8989574 55.68398457 51.13765579 64.83083725 57.22544861 C67.41010036 58.8985716 69.96022693 60.35170062 72.6941185 61.74497986 C84.4759933 68.18340215 92.04082963 78.31044219 96.2566185 90.86997986 C98.45806329 97.07071603 101.58007824 100.09744287 106.62771225 104.17466736 C109.99238686 107.18188076 111.33096061 110.06543442 112.9441185 114.24497986 C112.9441185 114.90497986 112.9441185 115.56497986 112.9441185 116.24497986 C114.9241185 116.24497986 116.9041185 116.24497986 118.9441185 116.24497986 C118.73058064 106.62298953 115.97093863 98.05790627 112.8816185 89.05747986 C112.51005127 87.960392 112.51005127 87.960392 112.13097763 86.84114075 C104.09860221 63.19056363 94.392537 46.98517851 73.30739975 32.53404236 C72.63257553 31.89595642 72.63257553 31.89595642 71.9441185 31.24497986 C71.9441185 30.25497986 71.9441185 29.26497986 71.9441185 28.24497986 C77.45395575 28.56656569 80.78298161 31.97509836 84.8191185 35.36997986 C85.50103256 35.92685486 86.18294662 36.48372986 86.88552475 37.05747986 C91.50281667 40.87444118 95.78314698 44.93720809 99.9441185 49.24497986 C97.78590369 39.65291404 89.56124279 33.78933312 81.9441185 28.36997986 C80.69997177 27.47206726 80.69997177 27.47206726 79.43069077 26.55601501 C76.94467449 24.7718065 74.44694942 23.00550135 71.9441185 21.24497986 C70.86493149 20.48024353 70.86493149 20.48024353 69.76394272 19.70005798 C29.22140323 -8.87259475 -36.63193407 5.04438765 -83.54690933 7.63145447 C-92.05318362 8.09988347 -100.55979962 8.56203371 -109.06648064 9.02300835 C-112.00800122 9.1831416 -114.94938867 9.34556262 -117.89076614 9.50830078 C-119.68367543 9.60621972 -121.47658805 9.70407772 -123.26950455 9.80186462 C-124.07505783 9.84704727 -124.88061111 9.89222992 -125.7105751 9.93878174 C-129.83189866 10.16158136 -133.92645062 10.29164256 -138.0558815 10.24497986 C-138.0558815 8.92497986 -138.0558815 7.60497986 -138.0558815 6.24497986 C-120.25467593 5.14007156 -102.45251371 4.05302622 -84.64836502 2.99656677 C-78.40540482 2.62590414 -72.16254249 2.25511156 -65.92111588 1.85923767 C-43.94985528 0.46687027 -22.0113837 0.0448605 0 0 Z M21.80739975 54.42466736 C21.19251694 55.35537048 20.57763412 56.28607361 19.9441185 57.24497986 C20.51219223 57.22403259 21.08026596 57.20308533 21.66555405 57.1815033 C36.76055211 56.69934223 50.10664996 56.51615641 61.9441185 67.24497986 C61.748806 69.03404236 61.748806 69.03404236 60.9441185 71.24497986 C58.764431 72.95591736 58.764431 72.95591736 56.0691185 74.61997986 C51.96221245 77.37554343 49.31427041 79.29135371 47.9441185 84.24497986 C48.15519143 87.52383517 48.15519143 87.52383517 48.9441185 90.24497986 C59.11642228 91.09267184 67.85975665 87.30825124 75.9441185 81.24497986 C75.38144272 80.59142517 75.38144272 80.59142517 74.80739975 79.92466736 C73.74031795 78.68287443 72.67533077 77.4392795 71.61208725 76.19419861 C70.55813225 74.96252755 69.49889922 73.73533608 68.43239975 72.51451111 C64.9441185 68.46650565 64.9441185 68.46650565 64.9441185 66.24497986 C68.8191185 67.99497986 68.8191185 67.99497986 69.9441185 70.24497986 C70.6041185 70.24497986 71.2641185 70.24497986 71.9441185 70.24497986 C72.1709935 70.80185486 72.3978685 71.35872986 72.6316185 71.93247986 C73.91433999 74.43126866 73.91433999 74.43126866 76.3816185 76.68247986 C82.11798366 82.41884502 82.57688862 87.38119522 82.9441185 95.24497986 C82.9441185 95.90497986 82.9441185 96.56497986 82.9441185 97.24497986 C86.5741185 96.91497986 90.2041185 96.58497986 93.9441185 96.24497986 C89.91855991 82.37916693 82.54147805 71.47392618 69.9441185 64.24497986 C68.6948454 63.631456 67.44331893 63.02251024 66.19021225 62.41685486 C60.89878261 59.80634213 56.09995657 56.51020131 51.21169662 53.22349548 C39.986396 45.79784166 30.41925672 41.60921659 21.80739975 54.42466736 Z M22.72341537 60.31822205 C19.25678326 60.56309495 17.34040587 60.87292589 14.7722435 63.28404236 C14.25146225 64.13740173 13.730681 64.99076111 13.1941185 65.86997986 C12.63079819 66.77747986 12.06747787 67.68497986 11.48708725 68.61997986 C10.97790756 69.48622986 10.46872787 70.35247986 9.9441185 71.24497986 C9.50712631 71.88435486 9.07013412 72.52372986 8.61989975 73.18247986 C6.31481888 76.67649718 5.13043062 79.99101706 5.373806 84.21763611 C6.56560124 88.45422329 9.90419061 91.21620767 12.9441185 94.24497986 C19.17520748 100.80459726 24.33434249 107.4483812 28.9441185 115.24497986 C29.6659935 114.50247986 30.3878685 113.75997986 31.1316185 112.99497986 C37.76427121 106.50971944 42.61836921 104.18203448 51.8191185 103.99497986 C57.12403491 104.07515492 61.82658348 104.88030385 66.9441185 106.24497986 C67.15165756 105.63912048 67.35919662 105.03326111 67.57302475 104.40904236 C70.08872343 97.56718402 73.55305705 92.04216773 77.9441185 86.24497986 C77.4491185 85.25497986 77.4491185 85.25497986 76.9441185 84.24497986 C76.42204819 84.55951111 75.89997787 84.87404236 75.36208725 85.19810486 C67.09560173 90.00453777 58.70362482 94.29064125 48.9441185 93.24497986 C45.9441185 91.24497986 45.9441185 91.24497986 45.0691185 88.61997986 C44.90565865 84.20656391 45.59256847 81.00896249 47.9441185 77.24497986 C49.86538314 75.46751049 51.82463599 74.01145598 54.0066185 72.56919861 C55.89146878 71.28096425 57.38568898 69.90568131 58.9441185 68.24497986 C57.40718183 67.27907895 55.86430972 66.32261987 54.3191185 65.36997986 C53.46060287 64.83630798 52.60208725 64.30263611 51.717556 63.75279236 C45.74250857 60.50438629 40.72253854 59.95195817 34.0691185 60.05747986 C33.30470444 60.05812439 32.54029037 60.05876892 31.75271225 60.05943298 C28.73960029 60.08245336 25.7345314 60.21891083 22.72341537 60.31822205 Z M78.9441185 91.24497986 C77.7381267 92.62832339 76.57919314 94.05287684 75.4441185 95.49497986 C74.815056 96.28388611 74.1859935 97.07279236 73.5378685 97.88560486 C72.04076255 100.10190877 71.374916 101.63626165 70.9441185 104.24497986 C74.79200435 102.67732266 77.32044747 100.45168889 79.9441185 97.24497986 C80.36302068 94.03436198 80.36302068 94.03436198 79.9441185 91.24497986 C79.6141185 91.24497986 79.2841185 91.24497986 78.9441185 91.24497986 Z M35.9441185 112.24497986 C35.2634935 113.25560486 34.5828685 114.26622986 33.8816185 115.30747986 C33.49876694 115.87595642 33.11591537 116.44443298 32.72146225 117.03013611 C31.56995985 120.31104999 32.32584014 122.84796184 32.9441185 126.24497986 C33.10821678 127.60618582 33.2655775 128.96821809 33.41677475 130.33091736 C34.64044099 139.82884601 36.27926555 145.94095816 43.9441185 152.24497986 C44.47569565 152.69067322 45.0072728 153.13636658 45.55495834 153.5955658 C51.97365301 158.94537624 58.57057966 164.27461279 65.9441185 168.24497986 C66.6041185 167.91497986 67.2641185 167.58497986 67.9441185 167.24497986 C66.96572006 166.41095642 65.98732162 165.57693298 64.97927475 164.71763611 C61.56823179 161.79830248 58.18270452 158.85116777 54.81179428 155.88560486 C53.27853607 154.53874274 51.73568274 153.20281115 50.19021225 151.86997986 C43.27146449 145.51676452 36.27202173 135.10201503 35.811306 125.46763611 C35.81388412 124.42478455 35.81646225 123.38193298 35.8191185 122.30747986 C35.81525131 120.7470697 35.81525131 120.7470697 35.811306 119.15513611 C35.92479827 116.66832015 36.22483279 114.61405579 36.9441185 112.24497986 C36.6141185 112.24497986 36.2841185 112.24497986 35.9441185 112.24497986 Z " fill="#464646" transform="translate(189.05588150024414,71.75502014160156)"/>
<path d="M0 0 C5.44713453 3.92700396 9.07226725 8.75262485 11.6875 14.9375 C14.05909301 31.15257776 5.90784906 42.51587243 -3.3125 54.9375 C-6.91916624 59.65124844 -10.94710313 63.53239179 -15.48046875 67.359375 C-17.33382532 68.89570604 -17.33382532 68.89570604 -18.8984375 70.65234375 C-19.36507812 71.07644531 -19.83171875 71.50054687 -20.3125 71.9375 C-23.67355125 71.6789576 -26.48519321 70.7615689 -29.3125 68.9375 C-29.90804687 68.17179687 -30.50359375 67.40609375 -31.1171875 66.6171875 C-33.34594 63.89668178 -35.60046178 61.96184772 -38.375 59.8125 C-50.13293118 50.28370931 -58.48064832 41.43305504 -63.3125 26.9375 C-63.96950555 19.57042134 -64.05493337 13.83349824 -59.3125 7.9375 C-55.20160155 5.74600136 -51.54554643 5.6688061 -46.9375 5.6875 C-45.67164063 5.68234375 -44.40578125 5.6771875 -43.1015625 5.671875 C-39.24371198 5.94232225 -36.00056397 6.81775046 -32.3125 7.9375 C-26.61149547 7.9375 -23.92140625 6.23063806 -19.98828125 2.41015625 C-14.37454526 -2.52312689 -6.83015883 -2.19080566 0 0 Z " fill="#FC4F51" transform="translate(287.3125,173.0625)"/>
<path d="M0 0 C1.08796875 0.35449219 2.1759375 0.70898438 3.296875 1.07421875 C12.47492851 4.55441368 20.2641678 9.9592156 28.38647461 15.38769531 C36.32303338 20.66178857 44.34473995 25.0462473 53 29 C54.28957024 29.60177772 55.57863274 30.20464469 56.8671875 30.80859375 C59.90251537 32.225692 62.94753811 33.62011997 66 35 C65.67 35.99 65.34 36.98 65 38 C59.51318269 37.42335996 55.15743069 35.48710997 50.25 33.125 C49.4245166 32.73078857 48.5990332 32.33657715 47.74853516 31.93041992 C37.11266324 26.73580428 27.00183614 20.54159075 17.3125 13.75 C1.63619223 3.14543886 -17.38333131 -2.17322327 -36.125 1.125 C-47.89064824 3.51908695 -58.93792877 7.76332237 -67 17 C-67.50402344 17.88429687 -68.00804687 18.76859375 -68.52734375 19.6796875 C-70 22 -70 22 -73.375 23.0625 C-74.08696533 23.20067139 -74.79893066 23.33884277 -75.5324707 23.48120117 C-78.3869572 24.08135787 -81.08242711 24.95853719 -83.85546875 25.86328125 C-91.12802748 28.12893157 -98.46766165 29.66577576 -105.9375 31.125 C-108.4681195 31.62421174 -110.99809575 32.12669792 -113.52734375 32.6328125 C-114.62812256 32.84824707 -115.72890137 33.06368164 -116.86303711 33.28564453 C-119.99623455 33.99914252 -122.97094806 34.93266592 -126 36 C-126 36.33 -126 36.66 -126 37 C-110.47912621 37.36263724 -95.55117611 36.89710103 -80.22119141 34.36376953 C-77.15365367 33.86139195 -74.07855522 33.42908144 -71 33 C-71 34.32 -71 35.64 -71 37 C-94.66884432 41.74299777 -94.66884432 41.74299777 -103 42 C-103.7312207 42.02578125 -104.46244141 42.0515625 -105.21582031 42.078125 C-131.45987365 42.89474276 -152.609568 35.86938389 -176.51586914 25.46459961 C-190.81928103 19.12272258 -190.81928103 19.12272258 -206 20 C-207.79000191 21.96323162 -207.79000191 21.96323162 -209 24 C-208.67 24.66 -208.34 25.32 -208 26 C-207.401875 25.360625 -206.80375 24.72125 -206.1875 24.0625 C-202.52453851 20.6088506 -198.68937094 20.52837105 -193.86010742 20.6015625 C-190.65109663 21.04860523 -188.98959376 21.96820497 -186.3046875 23.74609375 C-181.27740542 26.90395302 -176.18834743 29.28862925 -170.6875 31.5 C-169.74181152 31.88236816 -168.79612305 32.26473633 -167.82177734 32.65869141 C-149.22831553 39.99797225 -129.9152828 44.90479802 -109.9140625 45.7890625 C-107 46 -107 46 -105 47 C-105.33 47.99 -105.66 48.98 -106 50 C-133.79885021 52.23783231 -167.93931664 41.37378891 -191 26 C-193.44679185 25.72091003 -193.44679185 25.72091003 -196.0625 25.8125 C-197.37927734 25.82216797 -197.37927734 25.82216797 -198.72265625 25.83203125 C-201.03125991 25.85720868 -201.03125991 25.85720868 -203 27 C-203 27.99 -203 28.98 -203 30 C-200.63508245 31.37502203 -198.26071484 32.72444458 -195.875 34.0625 C-195.20984375 34.45244141 -194.5446875 34.84238281 -193.859375 35.24414062 C-189.37797557 37.72648443 -187.11305206 38.24248466 -182 37 C-175.17892993 36.36441518 -169.74462861 37.72954533 -163.375 40.0625 C-161.5269212 40.70695484 -159.67792667 41.34878843 -157.828125 41.98828125 C-156.87486328 42.32037598 -155.92160156 42.6524707 -154.93945312 42.99462891 C-137.22813473 49.05237053 -119.79288476 54.08095505 -101 55 C-101 56.32 -101 57.64 -101 59 C-108.37636516 59.2225361 -115.21678181 58.76723093 -122.4375 57.25 C-123.42959473 57.04608643 -124.42168945 56.84217285 -125.44384766 56.63208008 C-137.09132954 54.04287515 -148.32311203 50.04729944 -159.53686523 46.01464844 C-167.17578687 43.30866657 -173.77686672 41.25615792 -182 42 C-182 42.66 -182 43.32 -182 44 C-181.42781738 44.31114746 -180.85563477 44.62229492 -180.26611328 44.94287109 C-178.54142064 45.8811397 -176.8169994 46.81990727 -175.09277344 47.7590332 C-173.09408694 48.84732754 -171.09472402 49.93438042 -169.09472656 51.02026367 C-164.42440781 53.56146652 -159.76673598 56.1152412 -155.1640625 58.77734375 C-122.3120309 77.72629796 -84.73080677 83.45499394 -47.75 73.8125 C-39.66451516 71.61640081 -31.68231437 69.06156124 -23.73535156 66.41137695 C-1.29718861 59.02488794 20.95229972 60.40731041 42.44921875 70.12109375 C48.65166369 73.25949285 54.23609626 77.39286659 59.85009766 81.46191406 C62.14147782 83.10121625 64.46242187 84.69037147 66.79296875 86.2734375 C68.36204141 87.34886752 69.93105333 88.42438617 71.5 89.5 C72.62305542 90.25627686 72.62305542 90.25627686 73.76879883 91.02783203 C74.45353271 91.50333496 75.1382666 91.97883789 75.84375 92.46875 C76.45412109 92.88576172 77.06449219 93.30277344 77.69335938 93.73242188 C78.12455078 94.15072266 78.55574219 94.56902344 79 95 C79 95.99 79 96.98 79 98 C78.34 98.33 77.68 98.66 77 99 C76.46745605 98.62302979 75.93491211 98.24605957 75.38623047 97.85766602 C39.15481726 71.36181214 39.15481726 71.36181214 -4.30737305 66.50488281 C-13.01254449 68.20304735 -21.30943594 70.53297408 -29.7204895 73.3298645 C-42.00491938 77.38612957 -54.05134038 80.95440584 -67 82 C-67.88381348 82.07541016 -68.76762695 82.15082031 -69.67822266 82.22851562 C-88.82863756 83.74238242 -107.6421204 83.02586888 -126 77 C-127.23363281 76.60167969 -128.46726562 76.20335937 -129.73828125 75.79296875 C-141.44143463 71.80490901 -152.18962688 65.93518848 -163 60 C-163.79132324 59.56655273 -164.58264648 59.13310547 -165.39794922 58.68652344 C-183.13099469 48.935432 -183.13099469 48.935432 -187.41796875 44.49609375 C-190.46977252 41.54586287 -193.53949539 39.92246522 -197.3125 38.0625 C-211.42945899 30.78414088 -211.42945899 30.78414088 -214.375 25.5625 C-213.76782674 21.41348271 -210.98627323 18.81238897 -208 16 C-201.31474931 12.65737465 -191.70200576 14.76479451 -184.9375 16.9375 C-177.8341358 19.45125833 -170.96944975 22.58260631 -164.07592773 25.61303711 C-155.85744825 29.17644548 -147.46631517 32.07091986 -138.83984375 34.484375 C-137.28800227 34.91928599 -135.75108746 35.40694903 -134.21875 35.90625 C-131.82481583 36.26858637 -131.82481583 36.26858637 -130.01171875 34.18359375 C-129.34785156 33.46300781 -128.68398438 32.74242187 -128 32 C-120.13790912 28.36231616 -111.13293672 27.22186597 -102.6875 25.625 C-84.14554996 22.32767043 -84.14554996 22.32767043 -69 12 C-49.29903363 -4.87260981 -24.1245233 -7.94897996 0 0 Z " fill="#454545" transform="translate(412,228)"/>
<path d="M0 0 C0.66 0.33 1.32 0.66 2 1 C2 2.65 2 4.3 2 6 C6.29 6 10.58 6 15 6 C15 6.66 15 7.32 15 8 C16.010625 8 17.02125 8 18.0625 8 C22.65556008 8.64284208 24.70143975 11.37267613 27.48828125 14.8671875 C30.08259025 18.52737539 32 21.45948889 32 26 C34.97 25.67 37.94 25.34 41 25 C41 25.99 41 26.98 41 28 C38.29120665 29.35439668 35.99066732 29.06501451 33 29 C33.05800781 29.58265625 33.11601562 30.1653125 33.17578125 30.765625 C34.10729009 47.69247131 21.57976757 61.78269347 10.98828125 73.7734375 C7.28630435 77.85170441 3.27225062 81.52609924 -1 85 C-1.33 84.34 -1.66 83.68 -2 83 C-3.299375 83.0928125 -3.299375 83.0928125 -4.625 83.1875 C-8.44199033 82.97544498 -10.71077536 81.87955693 -14 80 C-12.25 79.375 -12.25 79.375 -10 79 C-8.66666667 79.66666667 -7.33333333 80.33333333 -6 81 C-1.72277538 80.85742585 0.98319807 77.75447132 4 75 C4.99 73.515 4.99 73.515 6 72 C6.66 72 7.32 72 8 72 C8.26554687 71.41089844 8.53109375 70.82179688 8.8046875 70.21484375 C10.03136826 67.94187646 11.3441234 66.42206649 13.125 64.5625 C22.38355656 54.21925898 28.71917324 42.70696914 28.4140625 28.671875 C27.65939014 21.97949745 24.86658651 17.41755406 19.875 13 C14.61554825 9.34125096 9.23113538 9.10151853 3 10 C-1.14380771 11.98100338 -4.5305409 14.74250966 -8.00390625 17.71484375 C-10.3690016 19.23757638 -11.27693873 19.23930007 -14 18.75 C-14.66 18.64171875 -15.32 18.5334375 -16 18.421875 C-18 18 -18 18 -19.7890625 17.46875 C-22.99336357 16.78939288 -26.10285349 16.78918738 -29.375 16.75 C-31.30472656 16.71132812 -31.30472656 16.71132812 -33.2734375 16.671875 C-37.23847322 17.02099764 -39.59147478 18.00917996 -43 20 C-43.66 20.33 -44.32 20.66 -45 21 C-44.38722388 18.03824877 -43.74627478 16.61941217 -42 14 C-33.38911349 10.44332948 -23.73651839 11.3118405 -15 14 C-15 14.66 -15 15.32 -15 16 C-12.36 15.34 -9.72 14.68 -7 14 C-6.67 12.68 -6.34 11.36 -6 10 C-5.0409375 9.071875 -5.0409375 9.071875 -4.0625 8.125 C-1.60204921 5.58999009 -0.91956427 3.37173564 0 0 Z " fill="#533938" transform="translate(270,163)"/>
<path d="M0 0 C0.66 0.33 1.32 0.66 2 1 C2 2.65 2 4.3 2 6 C6.29 6 10.58 6 15 6 C15 6.66 15 7.32 15 8 C16.03125 8.04125 17.0625 8.0825 18.125 8.125 C22.2869339 9.06479153 24.02290991 9.96674243 26.84375 13.03515625 C29.01497778 16.72477644 28.98341772 20.80468318 29 25 C27.25344164 22.71072576 25.65404216 20.44646745 24.125 18 C21.30302753 14.01603887 18.65033004 11.55011001 14 10 C6.63693157 9.04642229 1.91444748 9.89653976 -4.02734375 14.39453125 C-5.36666907 15.48455641 -6.69189577 16.59209014 -8.00390625 17.71484375 C-10.3690016 19.23757638 -11.27693873 19.23930007 -14 18.75 C-14.66 18.64171875 -15.32 18.5334375 -16 18.421875 C-18 18 -18 18 -19.7890625 17.46875 C-22.99336357 16.78939288 -26.10285349 16.78918738 -29.375 16.75 C-31.30472656 16.71132812 -31.30472656 16.71132812 -33.2734375 16.671875 C-37.23847322 17.02099764 -39.59147478 18.00917996 -43 20 C-43.66 20.33 -44.32 20.66 -45 21 C-44.38722388 18.03824877 -43.74627478 16.61941217 -42 14 C-33.38911349 10.44332948 -23.73651839 11.3118405 -15 14 C-15 14.66 -15 15.32 -15 16 C-12.36 15.34 -9.72 14.68 -7 14 C-6.67 12.68 -6.34 11.36 -6 10 C-5.0409375 9.071875 -5.0409375 9.071875 -4.0625 8.125 C-1.60204921 5.58999009 -0.91956427 3.37173564 0 0 Z " fill="#522E2D" transform="translate(270,163)"/>
<path d="M0 0 C0.33 0 0.66 0 1 0 C1.00257813 0.55945313 1.00515625 1.11890625 1.0078125 1.6953125 C1.269285 7.11650899 2.42290321 11.35690162 4.6875 16.29296875 C7.98477812 23.70514577 10.6455563 31.26698918 13.15234375 38.97827148 C13.87959681 41.20155289 14.6308928 43.41581708 15.3828125 45.63085938 C18.0167104 53.5833454 19.60974686 60.53046733 19 69 C15.7 69 12.4 69 9 69 C9 68.67 9 68.34 9 68 C10.98 68 12.96 68 15 68 C14.78700643 58.39105652 12.02410719 49.86037744 8.9375 40.875 C8.6924472 40.14854279 8.44739441 39.42208557 8.19491577 38.6736145 C4.50863583 27.75454455 0.42906251 17.18921474 -5 7 C-3.35 7 -1.7 7 0 7 C0 4.69 0 2.38 0 0 Z " fill="#505050" transform="translate(293,120)"/>
<path d="M0 0 C0.91007812 0.00902344 1.82015625 0.01804687 2.7578125 0.02734375 C3.80582031 0.04474609 3.80582031 0.04474609 4.875 0.0625 C4.545 0.7225 4.215 1.3825 3.875 2.0625 C1.7344598 2.72043446 -0.41944713 3.21118505 -2.60546875 3.6953125 C-6.54781853 5.83457207 -8.64182962 9.40482132 -11.125 13.0625 C-9.80886719 13.02769531 -8.49273437 12.99289063 -7.13671875 12.95703125 C10.95816867 12.62665674 10.95816867 12.62665674 19.875 16.0625 C19.38 17.5475 19.38 17.5475 18.875 19.0625 C17.8540625 18.89878906 16.833125 18.73507813 15.78125 18.56640625 C9.33674846 17.76084356 2.8578993 17.95717597 -3.625 18 C-4.924375 18.00451172 -6.22375 18.00902344 -7.5625 18.01367188 C-10.75004825 18.0253908 -13.93749955 18.04179781 -17.125 18.0625 C-15.92138189 12.98473611 -14.53414365 9.76092532 -11.125 5.6875 C-10.42375 4.83414063 -9.7225 3.98078125 -9 3.1015625 C-6.05123957 -0.10521446 -4.21821113 -0.05407963 0 0 Z " fill="#434343" transform="translate(221.125,114.9375)"/>
<path d="M0 0 C-0.33 0.99 -0.66 1.98 -1 3 C-15.84445903 6.43153645 -29.77824727 7.54341009 -45 7 C-45 6.34 -45 5.68 -45 5 C-43.6699292 4.83395264 -43.6699292 4.83395264 -42.31298828 4.66455078 C-38.97650883 4.2462394 -35.64047918 3.82462681 -32.3046875 3.40087891 C-30.86962934 3.21924632 -29.43441093 3.03887463 -27.99902344 2.85986328 C-25.91816486 2.60011873 -23.83783797 2.33664406 -21.7578125 2.0703125 C-20.74427704 1.94055023 -20.74427704 1.94055023 -19.71026611 1.8081665 C-15.08068461 1.19484648 -10.54936821 0.36267277 -6.01123047 -0.73486328 C-3.74383939 -1.03376917 -2.16498517 -0.68672623 0 0 Z " fill="#404040" transform="translate(342,262)"/>
<path d="M0 0 C5.50983725 0.32158583 8.83886311 3.7301185 12.875 7.125 C13.55691406 7.681875 14.23882812 8.23875 14.94140625 8.8125 C19.07149772 12.22670895 22.88573065 15.80811526 26.55908203 19.71044922 C27.92610445 21.22229448 27.92610445 21.22229448 30 21 C30 21.99 30 22.98 30 24 C28.35 24.33 26.7 24.66 25 25 C23.8553125 23.5459375 23.8553125 23.5459375 22.6875 22.0625 C16.66738362 15.03191492 8.96621678 9.49989206 1.36328125 4.2890625 C0.91339844 3.86367187 0.46351563 3.43828125 0 3 C0 2.01 0 1.02 0 0 Z " fill="#4D4D4D" transform="translate(261,100)"/>
<path d="M0 0 C0.99 0 1.98 0 3 0 C3.67561372 2.5395837 4.34065828 5.08118835 5 7.625 C5.19078125 8.33785156 5.3815625 9.05070313 5.578125 9.78515625 C6.65017287 13.95848544 7.21946814 17.65178751 7 22 C6.67 22 6.34 22 6 22 C6 20.35 6 18.7 6 17 C5.34 17 4.68 17 4 17 C4 19.64 4 22.28 4 25 C4.99 25.33 5.98 25.66 7 26 C6.57507874 27.29585916 6.13454118 28.5866044 5.6875 29.875 C5.44386719 30.59429687 5.20023438 31.31359375 4.94921875 32.0546875 C4 34 4 34 1 36 C1 35.34 1 34.68 1 34 C-0.98 34 -2.96 34 -5 34 C-5 33.67 -5 33.34 -5 33 C-4.21625 32.938125 -3.4325 32.87625 -2.625 32.8125 C-1.75875 32.544375 -0.8925 32.27625 0 32 C4.53859809 23.23260573 1.789419 12.81030391 -0.44140625 3.73828125 C-0.62574219 2.83464844 -0.81007812 1.93101562 -1 1 C-0.67 0.67 -0.34 0.34 0 0 Z " fill="#4F4D4C" transform="translate(218,192)"/>
<path d="M0 0 C11.02577187 -1.56095197 23.81377028 2.87584685 33 9 C33 9.66 33 10.32 33 11 C26.62566358 10.47307437 21.36171898 8.8545579 15.4375 6.5 C9.92155138 4.31815535 4.92484987 2.57260294 -1 2 C-0.67 1.34 -0.34 0.68 0 0 Z " fill="#434343" transform="translate(232,266)"/>
<path d="M0 0 C0.33 0.99 0.66 1.98 1 3 C2.2065625 2.7215625 2.2065625 2.7215625 3.4375 2.4375 C4.7059375 2.2209375 4.7059375 2.2209375 6 2 C7 3 7 3 7.0625 6.0625 C7.041875 7.031875 7.02125 8.00125 7 9 C6.34 8.01 5.68 7.02 5 6 C4.34 6.66 3.68 7.32 3 8 C2.67 7.34 2.34 6.68 2 6 C0.85252535 7.62384142 -0.2929291 9.24911056 -1.4375 10.875 C-2.07558594 11.77992188 -2.71367187 12.68484375 -3.37109375 13.6171875 C-4.99518138 15.87738581 -4.99518138 15.87738581 -6 18 C-5.01 17.67 -4.02 17.34 -3 17 C-3 17.66 -3 18.32 -3 19 C-7.625 21.125 -7.625 21.125 -11 20 C-8.41070739 12.44119548 -4.8166259 6.35902858 0 0 Z " fill="#4F4C4D" transform="translate(266,158)"/>
<path d="M0 0 C0.33 0.66 0.66 1.32 1 2 C0.67 2.66 0.34 3.32 0 4 C0.66 4.33 1.32 4.66 2 5 C1.06027344 6.37671875 1.06027344 6.37671875 0.1015625 7.78125 C-0.72455939 9.02043284 -1.55004641 10.26003909 -2.375 11.5 C-2.7875 12.10070312 -3.2 12.70140625 -3.625 13.3203125 C-6.5744012 17.79198528 -7.94226752 21.7462079 -9 27 C-9.66 25.68 -10.32 24.36 -11 23 C-11.33 24.98 -11.66 26.96 -12 29 C-12.33 29 -12.66 29 -13 29 C-14.36374835 19.06411915 -8.29015585 10.88361036 -2.5625 3.1875 C-1.71761407 2.11760528 -0.86742042 1.05170754 0 0 Z " fill="#474747" transform="translate(204,129)"/>
<path d="M0 0 C3.82837356 1.46548493 5.03054932 3.3146544 6.9375 6.875 C9.19036416 10.78786932 10.99276567 13.69584026 15 16 C18.18762109 16.79690838 18.18762109 16.79690838 21 17 C20.67 17.99 20.34 18.98 20 20 C16.22192534 20.55096922 14.12202726 20.72481323 10.859375 18.6171875 C4.38421735 13.0773304 1.8112819 8.22043322 0 0 Z " fill="#494949" transform="translate(198,209)"/>
<path d="M0 0 C9.50024179 -1.3571774 17.03635052 3.27869352 25 8 C25.33 8.66 25.66 9.32 26 10 C25.34 10 24.68 10 24 10 C24 10.66 24 11.32 24 12 C20.56676103 10.68657228 17.36403342 9.17084856 14.125 7.4375 C9.96699493 5.32115012 6.63801652 4.30247934 2 4 C2 3.67 2 3.34 2 3 C3.65 2.67 5.3 2.34 7 2 C4.69 1.67 2.38 1.34 0 1 C0 0.67 0 0.34 0 0 Z " fill="#474747" transform="translate(218,114)"/>
<path d="M0 0 C7.2831709 -0.83678985 11.63027551 0.35526291 17.67578125 4.4921875 C20.04545902 6.02949106 22.35240852 7.03468346 25 8 C24.01 8.99 23.02 9.98 22 11 C18.5747996 10.02137131 16.07972695 9.05846643 13.1875 6.9375 C9.13072809 4.47161904 5.66714713 4.20742876 1 4 C1 3.67 1 3.34 1 3 C2.98 3 4.96 3 7 3 C7 2.34 7 1.68 7 1 C4.69 1 2.38 1 0 1 C0 0.67 0 0.34 0 0 Z " fill="#525252" transform="translate(211,249)"/>
<path d="M0 0 C3.17033042 0.33967826 3.99882607 0.99869191 6.1875 3.4375 C8.84692435 7.1973758 9.11570342 9.04950599 9.0625 13.625 C9.05347656 14.62789062 9.04445313 15.63078125 9.03515625 16.6640625 C9.02355469 17.43492188 9.01195312 18.20578125 9 19 C8.01 19.33 7.02 19.66 6 20 C5.01 19.34 4.02 18.68 3 18 C3.33 17.01 3.66 16.02 4 15 C4.99 15.33 5.98 15.66 7 16 C6.57847656 15.18015625 6.15695312 14.3603125 5.72265625 13.515625 C5.17480469 12.43796875 4.62695312 11.3603125 4.0625 10.25 C3.51722656 9.18265625 2.97195313 8.1153125 2.41015625 7.015625 C1.28783725 4.61554115 0.49498341 2.58143248 0 0 Z " fill="#484848" transform="translate(284,108)"/>
<path d="M0 0 C-0.33 0.33 -0.66 0.66 -1 1 C-0.34 1.66 0.32 2.32 1 3 C-5.66666667 4.33333333 -12.33333333 5.66666667 -19 7 C-19 6.01 -19 5.02 -19 4 C-19.66 3.67 -20.32 3.34 -21 3 C-18.25244513 2.30111323 -15.50268803 1.6156012 -12.75 0.9375 C-11.97269531 0.73833984 -11.19539063 0.53917969 -10.39453125 0.33398438 C-9.64042969 0.15029297 -8.88632812 -0.03339844 -8.109375 -0.22265625 C-7.07248535 -0.48187866 -7.07248535 -0.48187866 -6.01464844 -0.74633789 C-3.74929191 -1.03156637 -2.1631688 -0.68076195 0 0 Z " fill="#454545" transform="translate(410,291)"/>
<path d="M0 0 C0.71816895 0.00298096 1.43633789 0.00596191 2.17626953 0.0090332 C2.96388672 0.00967773 3.75150391 0.01032227 4.56298828 0.01098633 C5.38669922 0.02709961 6.21041016 0.04321289 7.05908203 0.05981445 C8.28304688 0.05498047 8.28304688 0.05498047 9.53173828 0.05004883 C13.70517765 0.08749404 16.48821536 0.28083485 20.18408203 2.37231445 C20.18408203 3.03231445 20.18408203 3.69231445 20.18408203 4.37231445 C12.14195448 4.53908668 4.1980445 4.01897425 -3.81591797 3.37231445 C-1.81591797 0.37231445 -1.81591797 0.37231445 0 0 Z " fill="#414141" transform="translate(411.81591796875,289.627685546875)"/>
<path d="M0 0 C0.33 0 0.66 0 1 0 C1.14695313 0.56847656 1.29390625 1.13695312 1.4453125 1.72265625 C3.17887982 7.69051157 5.63106305 11.60278515 10 16 C7.37105191 16.46393202 5.63555747 16.38847892 3.33203125 14.98046875 C0.72874508 12.73583008 -0.81045786 11.08360882 -1.4140625 7.6328125 C-1.43582216 5.36255476 -1.37246749 3.23951974 -1 1 C-0.67 0.67 -0.34 0.34 0 0 Z " fill="#454545" transform="translate(193,151)"/>
<path d="M0 0 C0 0.33 0 0.66 0 1 C-2.31 1.33 -4.62 1.66 -7 2 C-4.03 2.495 -4.03 2.495 -1 3 C-1 3.33 -1 3.66 -1 4 C-2.27875 4.12375 -3.5575 4.2475 -4.875 4.375 C-8.34790936 4.69042399 -8.34790936 4.69042399 -11 7 C-11.33 6.34 -11.66 5.68 -12 5 C-12.99 6.485 -12.99 6.485 -14 8 C-15.66666667 6.33333333 -17.33333333 4.66666667 -19 3 C-13.04703442 -0.43440322 -6.66321844 -0.13326437 0 0 Z " fill="#525252" transform="translate(239,265)"/>
<path d="M0 0 C1.95825873 -0.02694851 3.91662226 -0.04637218 5.875 -0.0625 C6.96554687 -0.07410156 8.05609375 -0.08570313 9.1796875 -0.09765625 C12 0 12 0 14 1 C13.67 1.99 13.34 2.98 13 4 C8.38 4 3.76 4 -1 4 C-0.67 2.68 -0.34 1.36 0 0 Z " fill="#515151" transform="translate(293,274)"/>
<path d="M0 0 C1.77260631 0.45142775 3.5430368 0.91140523 5.3125 1.375 C6.79169922 1.75785156 6.79169922 1.75785156 8.30078125 2.1484375 C11 3 11 3 14 5 C13.34 5 12.68 5 12 5 C12.33 5.99 12.66 6.98 13 8 C8.2460133 6.85248597 3.62107093 5.61737483 -1 4 C-0.67 2.68 -0.34 1.36 0 0 Z " fill="#4C4C4C" transform="translate(281,299)"/>
<path d="M0 0 C0.33 0.99 0.66 1.98 1 3 C2.64034193 3.72904086 4.31301918 4.38655243 6 5 C10.8440367 7.53211009 10.8440367 7.53211009 12 11 C7.02042811 10.52575506 3.85032781 9.22353026 0 6 C-0.9375 3.3125 -0.9375 3.3125 -1 1 C-0.67 0.67 -0.34 0.34 0 0 Z " fill="#454545" transform="translate(227,269)"/>
<path d="M0 0 C1.9375 0.8125 1.9375 0.8125 4 2 C4.33 2.99 4.66 3.98 5 5 C5.66 5 6.32 5 7 5 C8.7143618 6.95927063 10.38405168 8.95880212 12 11 C10.68 10.67 9.36 10.34 8 10 C7.67 10.66 7.34 11.32 7 12 C4.36 9.03 1.72 6.06 -1 3 C-0.67 2.01 -0.34 1.02 0 0 Z " fill="#4D4D4D" transform="translate(254,137)"/>
<path d="M0 0 C-1.98 0.99 -1.98 0.99 -4 2 C-1.03 2.495 -1.03 2.495 2 3 C2 3.33 2 3.66 2 4 C-0.14576637 4.02685938 -2.29162645 4.04633088 -4.4375 4.0625 C-5.63246094 4.07410156 -6.82742187 4.08570312 -8.05859375 4.09765625 C-11 4 -11 4 -12 3 C-14.69235776 2.76321284 -17.36498156 2.57801975 -20.0625 2.4375 C-20.82111328 2.39431641 -21.57972656 2.35113281 -22.36132812 2.30664062 C-24.24065438 2.20026367 -26.12030244 2.09960066 -28 2 C-28 1.67 -28 1.34 -28 1 C-24.83350749 0.82991412 -21.6667838 0.66456601 -18.5 0.5 C-17.1696875 0.42845703 -17.1696875 0.42845703 -15.8125 0.35546875 C-10.53287287 0.08372324 -5.28655326 -0.04940704 0 0 Z " fill="#535353" transform="translate(110,75)"/>
<path d="M0 0 C1.12894876 0.93274109 2.25300876 1.87140122 3.375 2.8125 C4.00148437 3.33457031 4.62796875 3.85664063 5.2734375 4.39453125 C7 6 7 6 9 9 C7.02 9.99 7.02 9.99 5 11 C2.69 8.69 0.38 6.38 -2 4 C-1.34 2.68 -0.68 1.36 0 0 Z " fill="#535353" transform="translate(176,180)"/>
<path d="M0 0 C5.16930883 3.83342003 9.39075194 7.59226681 11 14 C11.31134564 19.02746651 11.2357036 23.97165652 11 29 C10.67 29 10.34 29 10 29 C9.89042969 27.83082031 9.78085937 26.66164062 9.66796875 25.45703125 C9.50845279 23.90878806 9.34826086 22.36061442 9.1875 20.8125 C9.11724609 20.04357422 9.04699219 19.27464844 8.97460938 18.48242188 C8.49127367 13.97773312 7.86141367 10.67896044 5 7 C4.01 6.34 3.02 5.68 2 5 C2 4.34 2 3.68 2 3 C1.34 3 0.68 3 0 3 C0 2.01 0 1.02 0 0 Z " fill="#D65659" transform="translate(288,174)"/>
<path d="M0 0 C0.66 0 1.32 0 2 0 C0.46473873 5.08190913 -2.67369658 8.42477886 -6.125 12.3125 C-6.68832031 12.95767578 -7.25164062 13.60285156 -7.83203125 14.26757812 C-9.21541508 15.85026301 -10.60691045 17.42585141 -12 19 C-12.66 18.67 -13.32 18.34 -14 18 C-14 17.34 -14 16.68 -14 16 C-13.34 16 -12.68 16 -12 16 C-11.7525 15.38125 -11.505 14.7625 -11.25 14.125 C-10 12 -10 12 -8 11.0625 C-5.22846646 9.59012281 -4.99130146 7.90309712 -4 5 C-3.34 4.01 -2.68 3.02 -2 2 C-1.34 2 -0.68 2 0 2 C0 1.34 0 0.68 0 0 Z " fill="#4C4747" transform="translate(291,220)"/>
<path d="M0 0 C5.28 0 10.56 0 16 0 C16 0.33 16 0.66 16 1 C13.03 1 10.06 1 7 1 C7 1.66 7 2.32 7 3 C10.96 3 14.92 3 19 3 C19 3.33 19 3.66 19 4 C12.07 4 5.14 4 -2 4 C-1.01 3.34 -0.02 2.68 1 2 C0.67 1.34 0.34 0.68 0 0 Z " fill="#5B5B5B" transform="translate(290,266)"/>
<path d="M0 0 C-0.33 0.66 -0.66 1.32 -1 2 C-4.76300374 3.25433458 -8.27210909 3.10695422 -12.1875 3.0625 C-12.93708984 3.05798828 -13.68667969 3.05347656 -14.45898438 3.04882812 C-16.30602383 3.03706354 -18.15302213 3.01912865 -20 3 C-20 2.34 -20 1.68 -20 1 C-13.28837062 0.11978631 -6.76594019 -0.11381955 0 0 Z " fill="#313131" transform="translate(317,266)"/>
<path d="M0 0 C0.68835938 0.01353516 1.37671875 0.02707031 2.0859375 0.04101562 C3.76597001 0.0760163 5.4455935 0.12981046 7.125 0.1875 C7.125 0.5175 7.125 0.8475 7.125 1.1875 C6.10019531 1.30867187 5.07539063 1.42984375 4.01953125 1.5546875 C2.65881021 1.72360459 1.2981355 1.8928952 -0.0625 2.0625 C-1.07280273 2.18044922 -1.07280273 2.18044922 -2.10351562 2.30078125 C-5.96018667 2.78992002 -9.40215277 3.39845749 -12.875 5.1875 C-13.76193303 7.22855639 -13.76193303 7.22855639 -13.875 9.1875 C-14.535 9.1875 -15.195 9.1875 -15.875 9.1875 C-15.03882138 5.42469621 -14.57722335 3.6443682 -11.28125 1.5 C-7.4018437 0.00518289 -4.08358661 -0.15432159 0 0 Z " fill="#DC5F63" transform="translate(240.875,178.8125)"/>
<path d="M0 0 C0.66 0 1.32 0 2 0 C2.268125 0.928125 2.53625 1.85625 2.8125 2.8125 C3.72251395 5.95914625 3.72251395 5.95914625 5.625 7.5625 C7 9 7 9 7.1875 11.6875 C7.125625 12.450625 7.06375 13.21375 7 14 C5.0625 13.1875 5.0625 13.1875 3 12 C2.67 11.01 2.34 10.02 2 9 C1.34 8.67 0.68 8.34 0 8 C0 5.36 0 2.72 0 0 Z " fill="#434442" transform="translate(222,209)"/>
<path d="M0 0 C5.94 1.485 5.94 1.485 12 3 C11.67 4.32 11.34 5.64 11 7 C5.06 5.515 5.06 5.515 -1 4 C-0.34 3.67 0.32 3.34 1 3 C0.67 2.01 0.34 1.02 0 0 Z " fill="#4B4B4B" transform="translate(264,274)"/>
<path d="M0 0 C-2.64 2.97 -5.28 5.94 -8 9 C-8.33 8.01 -8.66 7.02 -9 6 C-9.66 5.67 -10.32 5.34 -11 5 C-7.58994413 0.25027933 -7.58994413 0.25027933 -4.9375 -0.875 C-3 -1 -3 -1 0 0 Z " fill="#4D4D4D" transform="translate(351,239)"/>
<path d="M0 0 C1.12894876 0.93274109 2.25300876 1.87140122 3.375 2.8125 C4.00148437 3.33457031 4.62796875 3.85664063 5.2734375 4.39453125 C7 6 7 6 9 9 C8.34 9 7.68 9 7 9 C6.34 9.66 5.68 10.32 5 11 C3.96409662 9.93106782 2.94666058 8.84421512 1.9375 7.75 C1.36902344 7.14671875 0.80054688 6.5434375 0.21484375 5.921875 C-1 4 -1 4 -0.68359375 1.765625 C-0.45800781 1.18296875 -0.23242188 0.6003125 0 0 Z " fill="#565758" transform="translate(229,219)"/>
<path d="M0 0 C0.33 0.99 0.66 1.98 1 3 C-4.24385089 4.7479503 -8.47322267 5.19392201 -14 5 C-14 4.67 -14 4.34 -14 4 C-10.535 3.505 -10.535 3.505 -7 3 C-9.97 2.505 -9.97 2.505 -13 2 C-13 1.67 -13 1.34 -13 1 C-11.20994059 0.63779734 -9.41787943 0.28547531 -7.625 -0.0625 C-6.12839844 -0.35833984 -6.12839844 -0.35833984 -4.6015625 -0.66015625 C-2 -1 -2 -1 0 0 Z " fill="#525252" transform="translate(252,161)"/>
<path d="M0 0 C3.22290201 0.0289309 5.44294723 0.35779815 8.1875 2.1875 C7.8575 2.8475 7.5275 3.5075 7.1875 4.1875 C-0.19711538 4.55673077 -0.19711538 4.55673077 -3.3125 2.6875 C-3.8075 2.1925 -4.3025 1.6975 -4.8125 1.1875 C-3.8125 0.1875 -3.8125 0.1875 0 0 Z " fill="#3E3E3E" transform="translate(285.8125,272.8125)"/>
<path d="M0 0 C0 0.66 0 1.32 0 2 C0.66 2.66 1.32 3.32 2 4 C-4.435 4.495 -4.435 4.495 -11 5 C-10.01 4.34 -9.02 3.68 -8 3 C-9.32 2.34 -10.64 1.68 -12 1 C-10.37512529 0.83211627 -8.75009558 0.66573213 -7.125 0.5 C-6.22007812 0.4071875 -5.31515625 0.314375 -4.3828125 0.21875 C-2 0 -2 0 0 0 Z " fill="#535353" transform="translate(324,264)"/>
<path d="M0 0 C4.54805635 -0.17835515 7.8794254 0.00214565 12 2 C12 2.66 12 3.32 12 4 C10.5629191 4.05422947 9.12524538 4.09289723 7.6875 4.125 C6.88699219 4.14820313 6.08648437 4.17140625 5.26171875 4.1953125 C3 4 3 4 0 2 C0 1.34 0 0.68 0 0 Z " fill="#3D3D3D" transform="translate(272,264)"/>
<path d="M0 0 C1.62463842 -0.05395478 3.24978541 -0.09277195 4.875 -0.125 C5.77992188 -0.14820313 6.68484375 -0.17140625 7.6171875 -0.1953125 C10 0 10 0 12 2 C11.67 2.66 11.34 3.32 11 4 C11.99 4.33 12.98 4.66 14 5 C10.98146205 5 8.22918921 4.85049285 5.25 4.5 C4.45078125 4.4071875 3.6515625 4.314375 2.828125 4.21875 C2.22484375 4.1465625 1.6215625 4.074375 1 4 C1 3.67 1 3.34 1 3 C2.98 3 4.96 3 7 3 C7 2.34 7 1.68 7 1 C4.69 1 2.38 1 0 1 C0 0.67 0 0.34 0 0 Z " fill="#545454" transform="translate(211,249)"/>
<path d="M0 0 C0.66 0.33 1.32 0.66 2 1 C0.35 4.63 -1.3 8.26 -3 12 C-3.33 11.01 -3.66 10.02 -4 9 C-4.99 8.67 -5.98 8.34 -7 8 C-4.69 5.36 -2.38 2.72 0 0 Z " fill="#504E4E" transform="translate(225,179)"/>
<path d="M0 0 C0.89203125 0.00902344 1.7840625 0.01804687 2.703125 0.02734375 C3.37859375 0.03894531 4.0540625 0.05054687 4.75 0.0625 C5.08 0.7225 5.41 1.3825 5.75 2.0625 C0.38904667 3.19112175 -4.80306686 3.15938221 -10.25 3.0625 C-9.25 1.0625 -9.25 1.0625 -7.515625 0.44140625 C-4.96855716 0.01543111 -2.58143831 -0.03396629 0 0 Z " fill="#303030" transform="translate(115.25,74.9375)"/>
<path d="M0 0 C5.75 1.75 5.75 1.75 8 4 C9.97536745 3.65213292 9.97536745 3.65213292 12 3 C12.99 3 13.98 3 15 3 C13.3125 5.0625 13.3125 5.0625 11 7 C7.65218979 6.83260949 4.80192128 5.83574153 2 4 C0.75 1.875 0.75 1.875 0 0 Z " fill="#DF5D62" transform="translate(256,238)"/>
<path d="M0 0 C0.33 0.99 0.66 1.98 1 3 C2.2065625 2.7215625 2.2065625 2.7215625 3.4375 2.4375 C4.7059375 2.2209375 4.7059375 2.2209375 6 2 C7 3 7 3 7.0625 6.0625 C7.041875 7.031875 7.02125 8.00125 7 9 C6.34 8.01 5.68 7.02 5 6 C4.34 6.66 3.68 7.32 3 8 C2.67 7.34 2.34 6.68 2 6 C1.01 6 0.02 6 -1 6 C-1.33 5.01 -1.66 4.02 -2 3 C-1.34 2.01 -0.68 1.02 0 0 Z " fill="#5E5D5D" transform="translate(266,158)"/>
<path d="M0 0 C2.3828125 -0.29296875 2.3828125 -0.29296875 5.125 -0.1875 C6.03507812 -0.16042969 6.94515625 -0.13335937 7.8828125 -0.10546875 C8.58148438 -0.07066406 9.28015625 -0.03585937 10 0 C10 0.99 10 1.98 10 3 C6.04 3 2.08 3 -2 3 C-1.34 2.01 -0.68 1.02 0 0 Z " fill="#313131" transform="translate(410,290)"/>
<path d="M0 0 C0 1.65 0 3.3 0 5 C-2.31 5 -4.62 5 -7 5 C-7 4.01 -7 3.02 -7 2 C-4 0 -4 0 0 0 Z " fill="#3C3C3C" transform="translate(342,245)"/>
<path d="M0 0 C7.04440079 -0.21133202 13.24112575 -0.07965362 20 2 C17 4 17 4 15.01953125 3.79296875 C13.92705078 3.49326172 13.92705078 3.49326172 12.8125 3.1875 C8.53672704 2.1010331 4.38413592 1.47826937 0 1 C0 0.67 0 0.34 0 0 Z " fill="#544F4E" transform="translate(235,175)"/>
<path d="M0 0 C0.66 0.33 1.32 0.66 2 1 C2 2.65 2 4.3 2 6 C2.66 6.33 3.32 6.66 4 7 C2.35 7 0.7 7 -1 7 C-1.66 8.65 -2.32 10.3 -3 12 C-4.32 11.67 -5.64 11.34 -7 11 C-6.21625 10.29875 -5.4325 9.5975 -4.625 8.875 C-1.91639182 5.90842914 -0.98277285 3.8417484 0 0 Z " fill="#484747" transform="translate(270,163)"/>
<path d="M0 0 C3.84177074 0.30329769 6.09427672 1.52475424 9 4 C6.875 5.25 6.875 5.25 4 6 C0.6875 4.125 0.6875 4.125 -2 2 C-1.34 1.34 -0.68 0.68 0 0 Z " fill="#4D4D4D" transform="translate(252,130)"/>
<path d="M0 0 C8.57142857 0.85714286 8.57142857 0.85714286 12 3 C7.58774263 4.47075246 4.51718381 5.36884358 0 4 C0.66 3.67 1.32 3.34 2 3 C2 2.34 2 1.68 2 1 C1.34 0.67 0.68 0.34 0 0 Z " fill="#4C4C4C" transform="translate(430,291)"/>
<path d="M0 0 C2.64 0.99 5.28 1.98 8 3 C7.67 4.32 7.34 5.64 7 7 C4.03 6.01 1.06 5.02 -2 4 C-1.34 2.68 -0.68 1.36 0 0 Z " fill="#515151" transform="translate(414,229)"/>
<path d="M0 0 C4.75 0.75 4.75 0.75 7 3 C6.67 3.99 6.34 4.98 6 6 C0.25 4.25 0.25 4.25 -2 2 C-1.34 2 -0.68 2 0 2 C0 1.34 0 0.68 0 0 Z " fill="#505050" transform="translate(460,256)"/>
<path d="M0 0 C3.19495886 3.69417118 4 5.17415172 4 10 C3.67 10.66 3.34 11.32 3 12 C-1.06153846 5.72307692 -1.06153846 5.72307692 -0.75 2.0625 C-0.5025 1.381875 -0.255 0.70125 0 0 Z " fill="#525252" transform="translate(196,203)"/>
<path d="M0 0 C3.375 4.5 3.375 4.5 4 8 C3.34 8 2.68 8 2 8 C2 12.29 2 16.58 2 21 C1.67 21 1.34 21 1 21 C0.67 14.07 0.34 7.14 0 0 Z " fill="#673F40" transform="translate(298,180)"/>
<path d="M0 0 C0 0.99 0 1.98 0 3 C-2.95664519 4.4783226 -5.74229737 4.06032783 -9 4 C-8.67 3.01 -8.34 2.02 -8 1 C-5.07175348 0.02391783 -3.04386724 -0.08226668 0 0 Z " fill="#3F3F3F" transform="translate(391,295)"/>
<path d="M0 0 C-0.33 0.33 -0.66 0.66 -1 1 C-0.34 1.66 0.32 2.32 1 3 C-2.3 3.33 -5.6 3.66 -9 4 C-8.34 3.34 -7.68 2.68 -7 2 C-7.99 1.34 -8.98 0.68 -10 0 C-6.33694766 -0.74926071 -3.57644848 -1.2380014 0 0 Z " fill="#525252" transform="translate(410,291)"/>
<path d="M0 0 C0.66 0.33 1.32 0.66 2 1 C2 1.99 2 2.98 2 4 C-0.66666667 5.33333333 -3.33333333 6.66666667 -6 8 C-5.38722388 5.03824877 -4.74627478 3.61941217 -3 1 C-2.01 0.67 -1.02 0.34 0 0 Z " fill="#4A3D38" transform="translate(231,176)"/>
<path d="M0 0 C1.4370809 -0.05422947 2.87475462 -0.09289723 4.3125 -0.125 C5.11300781 -0.14820312 5.91351563 -0.17140625 6.73828125 -0.1953125 C9 0 9 0 12 2 C11.67 2.99 11.34 3.98 11 5 C8.03 4.67 5.06 4.34 2 4 C2 3.67 2 3.34 2 3 C3.65 2.67 5.3 2.34 7 2 C4.69 1.67 2.38 1.34 0 1 C0 0.67 0 0.34 0 0 Z " fill="#595959" transform="translate(218,114)"/>
<path d="M0 0 C2.64 0.33 5.28 0.66 8 1 C7.34 1.66 6.68 2.32 6 3 C6.66 3.66 7.32 4.32 8 5 C4.7 4.67 1.4 4.34 -2 4 C-1.34 3.67 -0.68 3.34 0 3 C0 2.01 0 1.02 0 0 Z " fill="#515151" transform="translate(227,73)"/>
<path d="M0 0 C3 0.25 3 0.25 5 2.25 C4.67 3.24 4.34 4.23 4 5.25 C1.03 4.26 -1.94 3.27 -5 2.25 C-3 0.25 -3 0.25 0 0 Z " fill="#4E4E4E" transform="translate(237,249.75)"/>
<path d="M0 0 C3.65316671 1.24976756 4.78065836 1.67098753 7 5 C6.01 5.66 5.02 6.32 4 7 C2 5.1875 2 5.1875 0 3 C0 2.01 0 1.02 0 0 Z " fill="#4E4E4E" transform="translate(485,320)"/>
<path d="M0 0 C0 0.99 0 1.98 0 3 C-2.64 3.33 -5.28 3.66 -8 4 C-7.34 3.67 -6.68 3.34 -6 3 C-6 2.34 -6 1.68 -6 1 C-6.99 0.67 -7.98 0.34 -9 0 C-5.62182575 -0.84454356 -3.32534757 -1.10844919 0 0 Z " fill="#515151" transform="translate(306,256)"/>
<path d="M0 0 C2.91517292 1.07401108 4.77810176 1.77810176 7 4 C5.35 4.66 3.7 5.32 2 6 C0.68 4.68 -0.64 3.36 -2 2 C-1.34 2 -0.68 2 0 2 C0 1.34 0 0.68 0 0 Z " fill="#4F504F" transform="translate(247,235)"/>
<path d="M0 0 C2.97 0.495 2.97 0.495 6 1 C6 2.32 6 3.64 6 5 C4.68 5.33 3.36 5.66 2 6 C0 3 0 3 0 0 Z " fill="#393838" transform="translate(215,187)"/>
<path d="M0 0 C0.66 0.33 1.32 0.66 2 1 C1.8125 3.375 1.8125 3.375 1 6 C-1.5625 7.3125 -1.5625 7.3125 -4 8 C-3.40072174 4.64404172 -2.15377564 2.62198774 0 0 Z " fill="#434642" transform="translate(264,162)"/>
<path d="M0 0 C2.64 0.33 5.28 0.66 8 1 C7.67 1.99 7.34 2.98 7 4 C4.69 4 2.38 4 0 4 C0 2.68 0 1.36 0 0 Z " fill="#404040" transform="translate(211,225)"/>
<path d="M0 0 C2 3 2 3 1.75 5.625 C1.5025 6.40875 1.255 7.1925 1 8 C0.01 8.495 0.01 8.495 -1 9 C-1 8.34 -1 7.68 -1 7 C-2.98 7 -4.96 7 -7 7 C-7 6.67 -7 6.34 -7 6 C-6.21625 5.938125 -5.4325 5.87625 -4.625 5.8125 C-3.75875 5.544375 -2.8925 5.27625 -2 5 C-0.62533375 2.52363988 -0.62533375 2.52363988 0 0 Z " fill="#565656" transform="translate(220,219)"/>
<path d="M0 0 C0.33 0.99 0.66 1.98 1 3 C-2.625 6 -2.625 6 -6 6 C-5.8125 4.125 -5.8125 4.125 -5 2 C-2.4375 0.75 -2.4375 0.75 0 0 Z " fill="#414141" transform="translate(244,144)"/>
<path d="M0 0 C2.64 0 5.28 0 8 0 C7.67 0.99 7.34 1.98 7 3 C4.36 3 1.72 3 -1 3 C-0.67 2.01 -0.34 1.02 0 0 Z " fill="#323232" transform="translate(343,306)"/>
<path d="M0 0 C3.3 0 6.6 0 10 0 C9.67 0.99 9.34 1.98 9 3 C6.1875 3.1875 6.1875 3.1875 3 3 C2.01 2.01 1.02 1.02 0 0 Z " fill="#373737" transform="translate(392,225)"/>
<path d="M0 0 C0.33 0.66 0.66 1.32 1 2 C1.66 2 2.32 2 3 2 C2.34 3.98 1.68 5.96 1 8 C0.34 7.34 -0.32 6.68 -1 6 C-1.66 6.99 -2.32 7.98 -3 9 C-2.5020163 5.26512223 -2.12508244 3.18762365 0 0 Z " fill="#555555" transform="translate(237,148)"/>
<path d="M0 0 C3.3 0 6.6 0 10 0 C9.67 0.66 9.34 1.32 9 2 C6.93359375 2.6328125 6.93359375 2.6328125 4.4375 3.125 C3.19806641 3.37636719 3.19806641 3.37636719 1.93359375 3.6328125 C1.29550781 3.75398438 0.65742188 3.87515625 0 4 C0 2.68 0 1.36 0 0 Z " fill="#373737" transform="translate(216,115)"/>
<path d="M0 0 C2.31 0.33 4.62 0.66 7 1 C7.33 1.99 7.66 2.98 8 4 C5.69 3.67 3.38 3.34 1 3 C0.67 2.01 0.34 1.02 0 0 Z " fill="#383838" transform="translate(257,273)"/>
<path d="M0 0 C3.625 -0.1875 3.625 -0.1875 7 0 C6.34 0.66 5.68 1.32 5 2 C5.66 2.66 6.32 3.32 7 4 C4.03 3.67 1.06 3.34 -2 3 C-1.34 2.01 -0.68 1.02 0 0 Z " fill="#4B4B4B" transform="translate(277,272)"/>
<path d="M0 0 C-0.99 0.495 -0.99 0.495 -2 1 C-2 1.66 -2 2.32 -2 3 C-4.31 3.33 -6.62 3.66 -9 4 C-8.67 3.01 -8.34 2.02 -8 1 C-5.29120665 -0.35439668 -2.99066732 -0.06501451 0 0 Z " fill="#373737" transform="translate(375,226)"/>
<path d="M0 0 C0.66 0 1.32 0 2 0 C2 1.65 2 3.3 2 5 C1.01 5.33 0.02 5.66 -1 6 C-1.99 5.34 -2.98 4.68 -4 4 C-3.67 3.01 -3.34 2.02 -3 1 C-2.01 1.33 -1.02 1.66 0 2 C0 1.34 0 0.68 0 0 Z " fill="#343434" transform="translate(291,122)"/>
<path d="M0 0 C2.4375 0.8125 2.4375 0.8125 5 2 C5.33 2.99 5.66 3.98 6 5 C3.03 4.505 3.03 4.505 0 4 C0 2.68 0 1.36 0 0 Z " fill="#3F3F3F" transform="translate(233,275)"/>
<path d="M0 0 C1.98 0.495 1.98 0.495 4 1 C2.25 5.875 2.25 5.875 0 7 C-1.125 2.25 -1.125 2.25 0 0 Z " fill="#4E4E4E" transform="translate(199,249)"/>
<path d="M0 0 C1.9375 0.625 1.9375 0.625 4 2 C4.75 5.125 4.75 5.125 5 8 C4.01 8 3.02 8 2 8 C1.34 5.36 0.68 2.72 0 0 Z " fill="#3F3F3F" transform="translate(198,209)"/>
<path d="M0 0 C-0.99 0.33 -1.98 0.66 -3 1 C-3.33 1.66 -3.66 2.32 -4 3 C-5.98 2.01 -7.96 1.02 -10 0 C-6.22996568 -2.61002376 -4.07631429 -1.66758312 0 0 Z " fill="#4E4E4E" transform="translate(154,163)"/>
<path d="M0 0 C0.99 0.33 1.98 0.66 3 1 C2.34 2.65 1.68 4.3 1 6 C0.67 5.34 0.34 4.68 0 4 C-0.66 4 -1.32 4 -2 4 C-2.33 4.99 -2.66 5.98 -3 7 C-3.66 6.67 -4.32 6.34 -5 6 C-3.35 4.02 -1.7 2.04 0 0 Z " fill="#515151" transform="translate(214,116)"/>
<path d="M0 0 C1.98 0.66 3.96 1.32 6 2 C5.34 3.32 4.68 4.64 4 6 C2.68 5.34 1.36 4.68 0 4 C0 2.68 0 1.36 0 0 Z " fill="#434343" transform="translate(244,281)"/>
<path d="M0 0 C-0.33 0.99 -0.66 1.98 -1 3 C-5.75 2.25 -5.75 2.25 -8 0 C-4.94736336 -0.98120464 -3.05263664 -0.98120464 0 0 Z " fill="#4A4A4A" transform="translate(342,262)"/>
<path d="M0 0 C1.32 1.32 2.64 2.64 4 4 C3.34 4 2.68 4 2 4 C1.67 4.99 1.34 5.98 1 7 C0.01 6.01 -0.98 5.02 -2 4 C-1.34 2.68 -0.68 1.36 0 0 Z " fill="#595959" transform="translate(176,180)"/>
<path d="M0 0 C2.875 -0.125 2.875 -0.125 6 0 C6.66 0.66 7.32 1.32 8 2 C7.67 2.66 7.34 3.32 7 4 C4.625 3.6875 4.625 3.6875 2 3 C1.34 2.01 0.68 1.02 0 0 Z " fill="#404040" transform="translate(257,134)"/>
<path d="M0 0 C1.65 0 3.3 0 5 0 C5 0.99 5 1.98 5 3 C5.99 3.33 6.98 3.66 8 4 C5 5 5 5 2.3125 3.6875 C1.549375 3.130625 0.78625 2.57375 0 2 C0 1.34 0 0.68 0 0 Z " fill="#3B3B3B" transform="translate(241,78)"/>
<path d="M0 0 C2.97 0.495 2.97 0.495 6 1 C6.33 1.99 6.66 2.98 7 4 C5.35 4 3.7 4 2 4 C1.34 2.68 0.68 1.36 0 0 Z " fill="#393939" transform="translate(249,264)"/>
<path d="M0 0 C2.6875 0.3125 2.6875 0.3125 5 1 C4.01 1.495 4.01 1.495 3 2 C3.33 2.99 3.66 3.98 4 5 C1.69 4.34 -0.62 3.68 -3 3 C-1.8125 1.4375 -1.8125 1.4375 0 0 Z " fill="#515151" transform="translate(246,262)"/>
<path d="M0 0 C1.21816406 0.03480469 1.21816406 0.03480469 2.4609375 0.0703125 C3.68683594 0.09738281 3.68683594 0.09738281 4.9375 0.125 C5.87722656 0.15980469 5.87722656 0.15980469 6.8359375 0.1953125 C6.8359375 0.8553125 6.8359375 1.5153125 6.8359375 2.1953125 C2.85397293 3.24936195 -0.14601559 3.03629906 -4.1640625 2.1953125 C-2.1640625 0.1953125 -2.1640625 0.1953125 0 0 Z " fill="#372E28" transform="translate(254.1640625,177.8046875)"/>
<path d="M0 0 C3.875 1.75 3.875 1.75 5 4 C4.01 4.495 4.01 4.495 3 5 C2.67 5.66 2.34 6.32 2 7 C0.4375 5.1875 0.4375 5.1875 -1 3 C-0.67 2.01 -0.34 1.02 0 0 Z " fill="#5D5D5D" transform="translate(254,137)"/>
<path d="M0 0 C1.98 0.99 3.96 1.98 6 3 C5.01 3.33 4.02 3.66 3 4 C2.67 4.66 2.34 5.32 2 6 C0.68 4.68 -0.64 3.36 -2 2 C-1.34 2 -0.68 2 0 2 C0 1.34 0 0.68 0 0 Z " fill="#4E4E4E" transform="translate(267,93)"/>
<path d="M0 0 C2.475 0.99 2.475 0.99 5 2 C5 2.66 5 3.32 5 4 C5.66 4 6.32 4 7 4 C7 4.66 7 5.32 7 6 C5.35 5.67 3.7 5.34 2 5 C2 4.34 2 3.68 2 3 C1.34 2.67 0.68 2.34 0 2 C0 1.34 0 0.68 0 0 Z " fill="#3A3A3A" transform="translate(222,251)"/>
<path d="M0 0 C2 3 2 3 2 7 C1.34 7 0.68 7 0 7 C0 8.65 0 10.3 0 12 C-0.33 12 -0.66 12 -1 12 C-1.14285714 3.42857143 -1.14285714 3.42857143 0 0 Z " fill="#585554" transform="translate(221,195)"/>
<path d="M0 0 C0.33 0.66 0.66 1.32 1 2 C1.66 2 2.32 2 3 2 C3 3.98 3 5.96 3 8 C2.34 6.68 1.68 5.36 1 4 C0.67 5.98 0.34 7.96 0 10 C-0.33 10 -0.66 10 -1 10 C-1.125 2.25 -1.125 2.25 0 0 Z " fill="#676767" transform="translate(192,148)"/>
<path d="M0 0 C1.43088528 2.86177057 0.59991697 4.93375773 0 8 C-0.99 8 -1.98 8 -3 8 C-3.99 8.495 -3.99 8.495 -5 9 C-3.7508258 5.54074837 -2.32472205 2.85306797 0 0 Z " fill="#595959" transform="translate(201,133)"/>
<path d="M0 0 C2.4375 0.375 2.4375 0.375 5 1 C5.33 1.66 5.66 2.32 6 3 C5.34 3 4.68 3 4 3 C3.67 3.66 3.34 4.32 3 5 C2.01 4.34 1.02 3.68 0 3 C0 2.01 0 1.02 0 0 Z " fill="#545454" transform="translate(261,100)"/>
<path d="M0 0 C3.625 -0.1875 3.625 -0.1875 7 0 C7 0.66 7 1.32 7 2 C2.545 2.495 2.545 2.495 -2 3 C-1.34 2.01 -0.68 1.02 0 0 Z " fill="#313131" transform="translate(211,250)"/>
<path d="M0 0 C0.66 0.33 1.32 0.66 2 1 C0.90931332 4.77545388 0.0916909 7.47043472 -3 10 C-3 8.68 -3 7.36 -3 6 C-2.34 6 -1.68 6 -1 6 C-1.0309375 4.7934375 -1.0309375 4.7934375 -1.0625 3.5625 C-1 1 -1 1 0 0 Z " fill="#DD5254" transform="translate(296,203)"/>
<path d="M0 0 C2 1.625 2 1.625 4 4 C4.25 7.25 4.25 7.25 4 10 C1.16625119 6.79663178 0.4794463 4.21912747 0 0 Z " fill="#EA6266" transform="translate(225,200)"/>
<path d="M0 0 C2.2477975 2.05233685 3.0022242 3.00667261 4 6 C2.68 6.33 1.36 6.66 0 7 C-0.66 5.68 -1.32 4.36 -2 3 C-1.34 2.67 -0.68 2.34 0 2 C0 1.34 0 0.68 0 0 Z " fill="#545454" transform="translate(214,181)"/>
<path d="M0 0 C1.65 1.32 3.3 2.64 5 4 C4.34 4 3.68 4 3 4 C2.67 4.99 2.34 5.98 2 7 C0.4375 4.625 0.4375 4.625 -1 2 C-0.67 1.34 -0.34 0.68 0 0 Z " fill="#505050" transform="translate(161,168)"/>
<path d="M0 0 C0.33 0 0.66 0 1 0 C1.33 2.64 1.66 5.28 2 8 C1.01 8 0.02 8 -1 8 C-1.04241723 5.66705225 -1.04092937 3.33297433 -1 1 C-0.67 0.67 -0.34 0.34 0 0 Z " fill="#373737" transform="translate(193,151)"/>
<path d="M0 0 C2.475 0.99 2.475 0.99 5 2 C4.34 2.66 3.68 3.32 3 4 C3.33 4.66 3.66 5.32 4 6 C1.53199953 4.84826645 -0.04783565 3.95216435 -2 2 C-1.34 2 -0.68 2 0 2 C0 1.34 0 0.68 0 0 Z " fill="#525252" transform="translate(264,136)"/>
<path d="M0 0 C2.475 0.495 2.475 0.495 5 1 C5 1.99 5 2.98 5 4 C3.35 3.67 1.7 3.34 0 3 C0 2.01 0 1.02 0 0 Z " fill="#3E3E3E" transform="translate(462,305)"/>
<path d="M0 0 C2.1875 0.3125 2.1875 0.3125 4 1 C3.67 1.99 3.34 2.98 3 4 C0.03 3.505 0.03 3.505 -3 3 C-1.75 1.4375 -1.75 1.4375 0 0 Z " fill="#525252" transform="translate(474,262)"/>
<path d="M0 0 C0.99 0.33 1.98 0.66 3 1 C1.35 2.65 -0.3 4.3 -2 6 C-2.33 5.01 -2.66 4.02 -3 3 C-2.34 3 -1.68 3 -1 3 C-0.67 2.01 -0.34 1.02 0 0 Z " fill="#534E51" transform="translate(280,233)"/>
<path d="M0 0 C0.99 0 1.98 0 3 0 C3.625 2.375 3.625 2.375 4 5 C3.34 5.66 2.68 6.32 2 7 C1.34 4.69 0.68 2.38 0 0 Z " fill="#434343" transform="translate(192,200)"/>
<path d="M0 0 C0.99 0.33 1.98 0.66 3 1 C2.67 3.31 2.34 5.62 2 8 C-0.1519437 4.77208445 -0.20086443 3.71599191 0 0 Z " fill="#424242" transform="translate(301,154)"/>
<path d="M0 0 C2.4375 0.375 2.4375 0.375 5 1 C5.33 1.66 5.66 2.32 6 3 C5.67 3.66 5.34 4.32 5 5 C2 4 2 4 0.8125 1.9375 C0.544375 1.298125 0.27625 0.65875 0 0 Z " fill="#3E3E3E" transform="translate(266,139)"/>
<path d="M0 0 C1.32 0 2.64 0 4 0 C3.67 1.65 3.34 3.3 3 5 C2.34 5 1.68 5 1 5 C0.67 3.35 0.34 1.7 0 0 Z " fill="#4C4C4C" transform="translate(292,132)"/>
<path d="M0 0 C1.98 0.495 1.98 0.495 4 1 C3.67 1.33 3.34 1.66 3 2 C3.99 2.66 4.98 3.32 6 4 C4.02 4 2.04 4 0 4 C0 2.68 0 1.36 0 0 Z " fill="#6D6D6D" transform="translate(51,78)"/>
</svg>
